<?xml version="1.0" encoding="utf-8"?>
<!-- Generator: Adobe Illustrator 19.0.0, SVG Export Plug-In . SVG Version: 6.00 Build 0)  -->
<svg version="1.1" id="圖層_1" xmlns="http://www.w3.org/2000/svg" xmlns:xlink="http://www.w3.org/1999/xlink" x="0px" y="0px"
	 viewBox="0 0 11.6930542 13.4390106" style="enable-background:new 0 0 11.6930542 13.4390106;" xml:space="preserve">
<style type="text/css">
	.st0{fill:#FFFFFF;}
	.st1{fill:#D40540;}
	.st2{fill-rule:evenodd;clip-rule:evenodd;fill:#004D52;}
	.st3{fill-rule:evenodd;clip-rule:evenodd;fill:#FDFDFD;}
	.st4{fill-rule:evenodd;clip-rule:evenodd;fill:#D40540;}
</style>
<rect id="XMLID_14_" x="0.0020142" y="0.0020142" class="st0" width="11.6890259" height="13.4349976"/>
<path id="XMLID_1_" class="st1" d="M0.0020142,8.4120026V0.0020142c3.8699951,0,7.7390137,0,11.6100464-0.0020142
	c0.0679932,0,0.0809937,0.0160217,0.0809937,0.0830078C11.69104,2.8340149,11.69104,5.5850067,11.69104,8.3350067
	c0,0.0240021-0.0020142,0.0460052-0.0040283,0.0700073c-0.032959,0.0019989-0.0650024,0.0019989-0.0949707,0.0019989H0.0990601
	C0.0670166,8.4070129,0.0350342,8.4090118,0.0020142,8.4120026 M7.8670654,6.7779999
	c0.1039429-0.0119934,0.197998-0.0189972,0.2929688-0.0319977c0.367981-0.0559998,0.6209717-0.25,0.7280273-0.6159973
	c0.0439453-0.1600037,0.065979-0.3199921,0.065979-0.4850006c0.0059814-0.9309998-0.0419922-1.8569946-0.2020264-2.776001
	C8.6920166,2.5350037,8.6150513,2.20401,8.4780273,1.8890076C8.2950439,1.4670105,8.0010376,1.1620178,7.5550537,1.0170288
	C7.2580566,0.9210205,6.9510498,0.8880005,6.6410522,0.8700256C6.2730103,0.8460083,5.9040527,0.855011,5.5320435,0.8570251
	C5.177063,0.8590088,4.8200073,0.8770142,4.4700317,0.9460144c-0.3670044,0.0750122-0.6920166,0.223999-0.9349976,0.5209961
	c-0.1699829,0.2070007-0.2769775,0.446991-0.3569946,0.7019958C2.9740601,2.8110046,2.9120483,3.4810028,2.8480225,4.1480103
	C2.8110352,4.5770111,2.8130493,5.0070038,2.8030396,5.4370117C2.7990112,5.6190033,2.8050537,5.8010101,2.8380127,5.9810028
	C2.90802,6.431015,3.1730347,6.6880035,3.6240234,6.7480011C3.710022,6.7570038,3.7990112,6.7660065,3.8930054,6.7779999
	C3.5950317,7.1320038,3.3050537,7.4790039,3.007019,7.8370056h0.7739868c0.0320435,0,0.0450439-0.022995,0.0620117-0.0399933
	C4.0250244,7.576004,4.2080078,7.355011,4.3890381,7.1340027c0.0219727-0.0240021,0.039978-0.0339966,0.072998-0.0339966h2.8380127
	c0.0319824,0,0.052002,0.0099945,0.072998,0.0339966c0.1779785,0.2210083,0.3619995,0.4380035,0.539978,0.6590118
	c0.0280151,0.0329895,0.0570068,0.04599,0.098999,0.04599c0.197998-0.0019989,0.3989868-0.0019989,0.5980225-0.0019989h0.1419678
	C8.4520264,7.477005,8.1600342,7.1300049,7.8670654,6.7779999"/>
<path id="XMLID_4_" class="st2" d="M0.0029907,8.4110107C0.0350342,8.4090118,0.06604,8.4070129,0.1000366,8.4070129h11.4909668
	c0.0320435,0,0.0629883,0,0.0950317-0.0010071c0.0020142,0.026001,0.0050049,0.0509949,0.0050049,0.0780029v4.9530029
	c-3.8779907,0-7.7560425,0-11.6310425,0.0019989C0.0110474,13.4390106,0,13.4260101,0,13.3769989
	C0.0029907,11.7230072,0.0029907,10.0680084,0.0029907,8.4110107 M2.4280396,10.3930054
	c0.0050049,0,0.0059814-0.0019989,0.0059814-0.0019989c0.0150146,0.0240021,0.026001,0.0460052,0.0349731,0.0679932
	c0.2040405,0.5550079,0.4089966,1.1080017,0.6140137,1.6620026c0.0140381,0.0400085,0.03302,0.0579987,0.0780029,0.0550079
	c0.0789795-0.0039978,0.1569824-0.0039978,0.2340088,0c0.0579834,0.0029907,0.0800171-0.0169983,0.0980225-0.0670013
	c0.1950073-0.548996,0.3919678-1.0950012,0.5910034-1.6419983c0.0079956-0.0220032,0.0079956-0.0500031,0.0379639-0.0650024
	v0.1100006v1.6009979c0,0.0460052,0.0109863,0.0630035,0.059021,0.0630035c0.1879883-0.0039978,0.3759766-0.0039978,0.565979,0
	c0.0599976,0.0009918,0.0740356-0.0169983,0.0740356-0.076004c-0.0020142-0.9369965-0.0020142-1.8769989-0.0020142-2.8139954
	c0-0.0110016-0.0020142-0.0230103,0-0.0330048C4.822998,9.2210083,4.8099976,9.2130127,4.7810059,9.2110138
	c-0.4439697-0.0400085-0.7789917,0.1729889-0.927002,0.5939941c-0.0669556,0.1880035-0.1289673,0.3759918-0.190979,0.5659943
	c-0.0900269,0.2630005-0.1779785,0.5279999-0.2720337,0.8059998c-0.0130005-0.0329895-0.0229492-0.0549927-0.0309448-0.0749969
	c-0.2369995-0.6040039-0.473999-1.2099915-0.710022-1.8139954c-0.0170288-0.0500031-0.039978-0.0650024-0.09198-0.0619965
	c-0.1970215,0.0019989-0.394043,0.0019989-0.5900269,0c-0.0469971-0.003006-0.0579834,0.0119934-0.0579834,0.0569916
	c0.0020142,0.1809998,0,0.3630066,0,0.5449982c0,0.7580109,0.0020142,1.5169983,0,2.2740021
	c0,0.0570068,0.0109863,0.0769958,0.0719604,0.0749969c0.1240234-0.0049896,0.2530518-0.0049896,0.3790283,0
	c0.0549927,0,0.0689697-0.0119934,0.0689697-0.0679932c-0.0019531-0.5509949-0.0019531-1.1029968-0.0019531-1.654007V10.3930054z
	 M6.1240234,9.6590118c-0.0139771,0.026001-0.0319824,0.0209961-0.0469971,0.026001
	C5.7280273,9.776001,5.56604,9.9869995,5.5640259,10.3390045c0,0.5879974,0.0020142,1.1750031,0,1.7610016
	c0,0.0429993,0.0020142,0.0650024,0.059021,0.0650024c0.1959839-0.0039978,0.3969727-0.0059967,0.5949707,0
	c0.0640259,0,0.0839844-0.0100098,0.0839844-0.0800018c-0.0039673-0.7810059-0.0019531-1.5619965-0.0019531-2.3419952V9.6970062
	C6.2980347,9.6720123,6.3060303,9.6590118,6.3359985,9.6590118c0.0800171,0.0019989,0.1630249-0.0040131,0.243042,0.0019989
	c0.1409912,0.0119934,0.2659912,0.0589905,0.3359985,0.1929932C7.0250244,10.0750122,6.9769897,10.375,6.8000488,10.5480042
	c-0.1010132,0.0980072-0.2280273,0.1560059-0.3500366,0.2230072c-0.0739746,0.0349884-0.0839844,0.0619965-0.0460205,0.1329956
	c0.2300415,0.4069977,0.460022,0.8170013,0.6900024,1.2259979c0.0090332,0.0200043,0.019043,0.0350037,0.0460205,0.0330048
	h0.7969971c-0.0180054-0.0279999-0.0289917-0.052002-0.0419922-0.0720062
	c-0.2550049-0.4100037-0.5109863-0.8190002-0.7659912-1.2279968c-0.026001-0.0410004-0.026001-0.0570068,0.0239868-0.0740051
	c0.2390137-0.0889893,0.4119873-0.2519989,0.5059814-0.4909973c0.1690063-0.4299927-0.072998-0.9329987-0.5059814-1.026001
	c-0.1060181-0.0249939-0.2149658-0.0439911-0.322998-0.0439911c-0.427002-0.0019989-0.8579712-0.0019989-1.2860107-0.0050049
	c-0.0369873,0-0.0479736,0.0119934-0.0440063,0.048996c0.0100098,0.1080017,0.019043,0.2170105,0.0240479,0.326004
	C5.526001,9.6470032,5.5390015,9.6610107,5.585022,9.6610107C5.7650146,9.6570129,5.9420166,9.6590118,6.1240234,9.6590118
	 M9.2010498,9.6549988c0,0.0040131,0,0.006012,0.0019531,0.0110016C9.184021,9.6720123,9.1680298,9.677002,9.1490479,9.6800079
	c-0.3440552,0.1029968-0.4890137,0.2929993-0.4920044,0.651001c-0.0020142,0.5930023,0.0029907,1.1849976,0,1.7749939
	c0,0.048996,0.0159912,0.0590057,0.0609741,0.0590057c0.2059937-0.0039978,0.4160156-0.0059967,0.6220093,0
	c0.065979,0.0019989,0.0750122-0.0200043,0.0750122-0.0800018c0-0.7850037,0-1.5650024-0.0020142-2.3470001
	c0-0.0700073,0.0209961-0.0850067,0.0880127-0.0850067c0.2099609,0.0040131,0.4229736,0.0019989,0.6359863,0.0040131
	c0.0429688,0,0.0540161-0.0140076,0.0540161-0.0570068c-0.0020142-0.1069946-0.0020142-0.2180023,0-0.326004
	c0.0019531-0.0359955-0.0060425-0.0509949-0.0469971-0.0479889c-0.7380371,0-1.4760132,0-2.2140503-0.003006
	c-0.0409546,0-0.0469971,0.0149994-0.0449829,0.0509949c0.0020142,0.1060028,0.0040283,0.2150116,0,0.3200073
	c-0.0039673,0.052002,0.0100098,0.0630035,0.0610352,0.0630035C8.342041,9.6549988,8.7369995,9.6549988,9.1340332,9.6549988
	H9.2010498z"/>
<path id="XMLID_9_" class="st3" d="M2.4275513,10.392807v0.0620117c0,0.5509949,0,1.1039886,0.0019531,1.6539917
	c0,0.0559998-0.0149536,0.0680084-0.0679932,0.0680084c-0.1270142-0.0059967-0.2550049-0.0059967-0.3800049,0
	c-0.0599976,0.0019989-0.0719604-0.0180054-0.0719604-0.0749969c0.0019531-0.756012,0-1.5160065,0-2.2740021
	c0-0.1820068,0.0019531-0.3639984,0-0.5440063c0-0.0480042,0.0119629-0.0599976,0.0579834-0.0579987
	c0.1970215,0.0019989,0.3939819,0.0019989,0.5910034,0c0.0529785-0.0019989,0.072998,0.0130005,0.0930176,0.0619965
	c0.2339478,0.6029968,0.4709473,1.2100067,0.7089844,1.8140106c0.0079956,0.019989,0.0169678,0.0419922,0.0319824,0.0749969
	c0.0930176-0.279007,0.1810303-0.5429993,0.2709961-0.8059998c0.0610352-0.1890106,0.1240234-0.378006,0.190979-0.5650024
	c0.1470337-0.4219971,0.4810181-0.6349945,0.9260254-0.5950012C4.8105469,9.2128143,4.8225098,9.221817,4.8185425,9.2528076
	c-0.0010376,0.0110016,0,0.0220032,0,0.0330048c0,0.9380035,0,1.8769989,0.0019531,2.8139954
	c0,0.0590057-0.0130005,0.0770111-0.0739746,0.0750122c-0.1890259-0.0039978-0.3770142-0.0039978-0.5650024,0
	c-0.0499878,0-0.0609741-0.0160065-0.0609741-0.0620117v-1.6009979v-0.1100006
	c-0.0300293,0.0140076-0.0300293,0.0429993-0.0370483,0.0650024C3.8845215,11.0138092,3.6875,11.5598145,3.4924927,12.1088104
	c-0.0169678,0.0500031-0.039978,0.0700073-0.0959473,0.0660095c-0.0780029-0.0039978-0.1570435-0.0039978-0.2369995,0
	c-0.0450439,0.0039978-0.0620117-0.0130005-0.0770264-0.053009c-0.2039795-0.5549927-0.4110107-1.1080017-0.6149902-1.6640015
	c-0.0079956-0.0209961-0.0180054-0.0429993-0.0280151-0.0670013C2.4395142,10.3908081,2.4345093,10.392807,2.4275513,10.392807"/>
<path id="XMLID_10_" class="st3" d="M9.2010498,9.6549988H9.1340332c-0.3970337,0-0.7919922,0-1.1879883,0.0020142
	c-0.0510254,0-0.0650024-0.0110016-0.0610352-0.0630035c0.0040283-0.1049957,0.0020142-0.2140045,0-0.3200073
	C7.8829956,9.2380066,7.8890381,9.2230072,7.9299927,9.2230072c0.7380371,0.003006,1.4760132,0.003006,2.2140503,0.003006
	c0.0409546-0.003006,0.0489502,0.0119934,0.0469971,0.0479889c-0.0020142,0.1080017-0.0020142,0.2190094,0,0.326004
	c0,0.0429993-0.0110474,0.0570068-0.0540161,0.0570068c-0.2130127-0.0020142-0.4260254,0-0.6359863-0.0040131
	c-0.0670166,0-0.0880127,0.0149994-0.0880127,0.0850067c0.0020142,0.7819977,0.0020142,1.5619965,0.0020142,2.3470001
	c0,0.0599976-0.0090332,0.0820007-0.0750122,0.0800018c-0.2059937-0.0059967-0.4160156-0.0039978-0.6220093,0
	c-0.0449829,0-0.0609741-0.0100098-0.0609741-0.0590057c0.0029907-0.5899963-0.0020142-1.1819916,0-1.7749939
	c0.0029907-0.3580017,0.1479492-0.5480042,0.4920044-0.651001C9.1680298,9.677002,9.184021,9.6720123,9.2030029,9.6660004
	C9.2010498,9.6610107,9.2010498,9.6590118,9.2010498,9.6549988"/>
<path id="XMLID_11_" class="st4" d="M5.8768921,4.2057953H3.730835c-0.05896,0-0.1199951-0.0019989-0.177002-0.0269928
	C3.447876,4.1318054,3.3758545,4.0527954,3.3758545,3.938797c-0.0119629-0.6779938,0.059021-1.348999,0.3540039-1.970993
	c0.1080322-0.2250061,0.2550049-0.4179993,0.4760132-0.5469971c0.1589966-0.0889893,0.3349609-0.1080017,0.5100098-0.1309814
	c0.664978-0.0910034,1.3339844-0.0800171,2.0019531-0.0380249c0.1960449,0.0110168,0.3910522,0.0400085,0.5840454,0.0800171
	C7.5348511,1.3768005,7.711853,1.5078125,7.855835,1.6898193c0.2000122,0.2569885,0.309021,0.5589905,0.3840332,0.8719788
	c0.1069946,0.4210052,0.1480103,0.8480072,0.1549683,1.279007C8.3968506,4.0888062,8.2738647,4.2057953,8.027832,4.2057953
	H5.8768921z"/>
<path id="XMLID_12_" class="st4" d="M4.0037842,5.9073944c-0.1070557,0-0.2140503,0.0020142-0.3200073,0
	C3.5247803,5.9053955,3.409729,5.8094025,3.3927612,5.6544037c-0.0130005-0.102005-0.0130005-0.2050018,0-0.3070068
	c0.0189819-0.1490021,0.1300049-0.25,0.2810059-0.2519989c0.2249756-0.0029907,0.447998-0.0029907,0.6729736,0
	c0.1660156,0.0019989,0.2880249,0.1269989,0.2880249,0.2920074c0,0.0829926,0.0020142,0.1629944,0,0.2419891
	c-0.0090332,0.1620026-0.1309814,0.276001-0.2900391,0.2779999C4.2307739,5.9094086,4.1167603,5.9073944,4.0037842,5.9073944"/>
<path id="XMLID_13_" class="st4" d="M7.7469482,5.9073944c-0.1100464,0-0.2220459,0.0020142-0.3330078,0
	C7.2518921,5.9053955,7.1359253,5.796402,7.1268921,5.6343994c-0.0059814-0.0950012-0.0059814-0.1860046,0-0.2819977
	c0.007019-0.1300049,0.118042-0.2449951,0.2490234-0.253006c0.2399902-0.0139923,0.4769897-0.0069885,0.71698-0.0019989
	C8.256897,5.0993958,8.3709106,5.2263947,8.3709106,5.3944092c0,0.094986,0.0120239,0.1899872-0.0100098,0.2839966
	C8.3339233,5.8144073,8.223938,5.9053955,8.0889282,5.9073944H8.0748901H7.7469482z"/>
</svg>
